<svg id="Layer_1" data-name="Layer 1" xmlns="http://www.w3.org/2000/svg" viewBox="0 0 2239.37 1783.57"><defs><style>.cls-1{fill:#0d4ba0;}.cls-2{fill:#718ec8;}.cls-3{fill:#b5231d;}</style></defs><path class="cls-1" d="M1473.29,1001c0,61.71-42.08,112.21-93.51,112.21s-93.5-50.5-93.5-112.21V799c0-61.71,42.07-112.21,93.5-112.21s93.51,50.5,93.51,112.21Z"/><path class="cls-1" d="M1379.78,350.19c-51.43,0-93.74,50.49-93.74,112.2V524.1c0,61.72,42.31,112.21,93.74,112.21s93.74-50.49,93.74-112.21V462.39C1473.52,400.68,1431.21,350.19,1379.78,350.19Z"/><path class="cls-2" d="M1821.89,1001c0,61.71,42.08,112.21,93.51,112.21s93.5-50.5,93.5-112.21V540.43c0-61.71-42.08-112.21-93.5-112.21s-93.51,50.5-93.51,112.21Z"/><path class="cls-1" d="M1915.4,91.61c51.43,0,93.74,50.49,93.74,112.2v61.72c0,61.71-42.31,112.2-93.74,112.2s-93.74-50.49-93.74-112.2V203.81C1821.66,142.1,1864,91.61,1915.4,91.61Z"/><path class="cls-1" d="M133.83,1001c0,61.71,42.08,112.21,93.51,112.21s93.5-50.5,93.5-112.21V540.43c0-61.71-42.08-112.21-93.5-112.21s-93.51,50.5-93.51,112.21Z"/><path class="cls-3" d="M81.74,1309.78l-10-106.89H237.05l11,106.89v422.08H81.74Z"/><path class="cls-3" d="M319.27,1609.44H439V1368.25q0-26.49-9.13-36.54t-29.24-11.88l-65.78-8.22L354.9,1191l134.3,16.45q55.71,6.4,85.88,48.88t30.15,107.34v368.18h-286Z"/><path class="cls-1" d="M680.13,1609.44H884.77q42,0,64.41-30.6t22.39-74.46v-74q0-43.86-22.39-74.46t-64.41-30.61H835.44l-12.79,64a62.76,62.76,0,0,0-.91,11.88q0,16.44,11.87,26t38.37,16l-23.75,100.49q-90.45.93-131.56-35.63t-41.11-98.67a228,228,0,0,1,2.74-35.63l37.46-170.84H925.89q65.77,0,113.74,30.15t73.09,84q25.11,53.91,25.12,122.42v55.73q0,68.52-25.12,122.42t-73.09,84q-48,30.15-113.74,30.15H680.13Z"/><path class="cls-1" d="M1586.87,1662q-110.11,72.63-331.18,79l-47.51-415.69-15.53-122.42h296.92q95,0,147.09,50.71t54.81,141.15l.92,32Q1697,1589.35,1586.87,1662Zm-103.24-87.25q27.86-16.44,36.54-42.93t8.68-69.44l-.91-39.28v-30.15q0-32-14.16-49.79t-36.09-17.82H1373.54L1401,1594.82Q1455.76,1591.19,1483.63,1574.72Z"/><path class="cls-1" d="M1751.77,1609.44h159.88q42,0,60.3-29.69t18.27-75.37v-74q0-45.68-18.27-75.37t-60.3-29.7H1751.77V1202.89h207.39q96.83,0,147.09,64.87t50.24,171.75v55.73q0,106.89-50.24,171.76t-147.09,64.86H1751.77Z"/><polygon class="cls-1" points="1978.63 194.44 1373.67 523.91 1378.96 502.5 224.53 217.41 215.99 251.93 1370.43 537.02 1370.57 536.44 1383.02 559.32 1995.64 225.67 1978.63 194.44"/><path class="cls-1" d="M1745.39,899.56c0,61.71-42.08,112.2-93.51,112.2s-93.5-50.49-93.5-112.2V356.73c0-61.71,42.07-112.2,93.5-112.2s93.51,50.49,93.51,112.2Z"/><path class="cls-1" d="M895.43,976.67c0,61.71-42.08,112.21-93.51,112.21s-93.5-50.5-93.5-112.21V281.93c0-61.71,42.07-112.21,93.5-112.21s93.51,50.5,93.51,112.21Z"/><path class="cls-3" d="M227.34,91.61c51.43,0,93.74,50.49,93.74,112.2v61.72c0,61.71-42.31,112.2-93.74,112.2s-93.74-50.49-93.74-112.2V203.81C133.6,142.1,175.91,91.61,227.34,91.61Z"/><path class="cls-2" d="M1190.9,751.82c0,61.71-42.08,112.2-93.5,112.2s-93.51-50.49-93.51-112.2V129.51c0-61.71,42.08-112.2,93.51-112.2s93.5,50.49,93.5,112.2Z"/><path class="cls-2" d="M603.69,776.57c0,61.71-42.08,112.2-93.5,112.2s-93.51-50.49-93.51-112.2V365.75c0-61.71,42.08-112.21,93.51-112.21s93.5,50.5,93.5,112.21Z"/></svg>